<svg width="48" height="44" viewBox="0 0 48 44" fill="none" xmlns="http://www.w3.org/2000/svg">
<path d="M41.4969 27.2381V33.5238H48V37.7143H41.4969V44H37.1614V37.7143H30.6583V33.5238H37.1614V27.2381H41.4969ZM24.1551 23.0476C21.7706 23.0476 19.8197 24.9333 19.8197 27.2381C19.8197 29.5429 21.7706 31.4286 24.1551 31.4286C26.5396 31.4286 28.4905 29.5429 28.4905 27.2381C28.4905 24.9333 26.5396 23.0476 24.1551 23.0476ZM27.0815 39.8095H10.0649C8.07064 39.8095 6.4015 38.5105 5.90292 36.7505L0.39692 17.3276C0.310211 17.139 0.310211 16.9505 0.310211 16.7619C0.310211 15.6095 1.28568 14.6667 2.47793 14.6667H12.8613L22.3559 0.942857C22.7678 0.335238 23.4614 0 24.1551 0C24.8488 0 25.5424 0.335238 25.9543 0.921905L35.4489 14.6667H45.8323C47.0245 14.6667 48 15.6095 48 16.7619L47.935 17.3276L45.8323 24.7448C44.5967 24.0952 43.2094 23.5505 41.757 23.2781L43.0143 18.8571H5.31764L10.0649 35.619H26.3228C26.3228 37.0857 26.6046 38.4895 27.0815 39.8095ZM18.0855 14.6667H30.2247L24.1551 5.86667L18.0855 14.6667Z" fill="#495E57"/>
</svg>
